<?xml version="1.0" encoding="utf-8"?>
<!-- Generator: Adobe Illustrator 27.3.1, SVG Export Plug-In . SVG Version: 6.00 Build 0)  -->
<svg version="1.1" id="Layer_2" xmlns="http://www.w3.org/2000/svg" xmlns:xlink="http://www.w3.org/1999/xlink" x="0px" y="0px"
	 viewBox="0 0 64 64" style="enable-background:new 0 0 64 64;" xml:space="preserve">
<style type="text/css">
	.st0{fill:#FFFFFF;stroke:#FFFFFF;}
	.st1{stroke:#000000;}
</style>
<circle class="st0" cx="32" cy="32" r="32"/>
<g id="Football-ball_1_">
	<path id="Football-ball" class="st1" d="M32,0C14.4,0,0,14.4,0,32s14.4,32,32,32s32-14.4,32-32S49.6,0,32,0z M61.6,36.7l-3.9-6.4
		l2.7-7.9c1,3,1.6,6.2,1.6,9.6C62,33.6,61.9,35.2,61.6,36.7z M54.1,52.3c-0.1,0-0.3,0-0.4,0L44,53.8c0-0.1-0.1-0.2-0.1-0.3l-5.5-9.2
		l8.9-13.7h8.4c0,0.1,0,0.2,0.1,0.3l5.2,8.7C59.8,44.4,57.3,48.7,54.1,52.3z M44,55.9l7.7-1.2c-3.3,2.9-7.3,5.1-11.7,6.3L44,55.9z
		 M12.6,9.1C17.7,4.8,24.2,2.2,31.3,2c0.1,0.1,0.1,0.3,0.2,0.4L37,7.6l-2.2,8.2l-14.2,5.5c-0.1,0-0.1-0.1-0.2-0.1l-8.9-4.7L12.6,9.1
		z M38.4,6.1l-4.3-4c3.9,0.3,7.6,1.3,11,2.9L38.4,6.1z M21.9,38.7l-0.8-15.6l14.5-5.6l9.8,12.1L37,42.8L21.9,38.7z M59.3,19.6
		c0,0.1-0.1,0.1-0.1,0.2l-3,8.9h-9L36.9,15.9L39,8.1l8.3-1.4c0.2,0,0.3-0.1,0.5-0.2C52.8,9.6,56.8,14.2,59.3,19.6z M10.3,11.3
		l-0.8,5.6l-5.3,4C5.6,17.3,7.7,14,10.3,11.3z M3.1,24.1c0,0,0.1,0,0.1-0.1l7.7-5.8l8.2,4.3L20,39.6c0,0,0,0,0,0.1l-7.7,7.6
		c-0.1,0.1-0.1,0.1-0.1,0.2l-7.4-3.2c0,0-0.1,0-0.1,0C3,40.5,2,36.4,2,32C2,29.3,2.4,26.6,3.1,24.1z M6.1,47.1l5.4,2.3l4.1,7.7
		C11.7,54.6,8.4,51.1,6.1,47.1z M18.8,59c0-0.1,0-0.1-0.1-0.2l-5.3-9.9c0.1,0,0.2-0.1,0.2-0.1l8-7.9l14.5,3.9l5.9,9.9
		c0,0.1,0.1,0.2,0.2,0.2l-5.4,6.9C35.3,61.9,33.7,62,32,62C27.3,62,22.8,60.9,18.8,59z"/>
</g>
</svg>
